<svg xmlns="http://www.w3.org/2000/svg" xmlns:xlink="http://www.w3.org/1999/xlink" viewBox="0 0 177.97 177.97"><defs><style>.cls-1{fill:url(#linear-gradient);}.cls-2{fill:url(#linear-gradient-2);}.cls-3{fill:url(#linear-gradient-3);}.cls-4{fill:url(#linear-gradient-4);}</style><linearGradient id="linear-gradient" x1="-17.96" y1="195.93" x2="200.82" y2="-22.85" gradientUnits="userSpaceOnUse"><stop offset="0" stop-color="#2c00d7"/><stop offset="1" stop-color="#ff29dd"/><stop offset="1" stop-color="#feaa90"/></linearGradient><linearGradient id="linear-gradient-2" x1="66.97" y1="88.94" x2="37.54" y2="113.45" gradientUnits="userSpaceOnUse"><stop offset="0" stop-color="#ccc"/><stop offset="1" stop-color="#fff"/><stop offset="1" stop-color="#ff29dd"/></linearGradient><linearGradient id="linear-gradient-3" x1="89.02" y1="98.75" x2="104.96" y2="91.39" xlink:href="#linear-gradient-2"/><linearGradient id="linear-gradient-4" x1="236.52" y1="-21.18" x2="70.61" y2="123.48" xlink:href="#linear-gradient-2"/></defs><g id="Layer_2" data-name="Layer 2"><g id="Layer_1-2" data-name="Layer 1"><rect class="cls-1" width="177.97" height="177.97" rx="17.72"/><path class="cls-2" d="M75.22,122.87H54.91l-6.15,12.8H26.29L68.84,46.56H88.77C73.32,53.24,60.43,67.5,60.43,89,60.43,103.71,66.46,115.05,75.22,122.87Z"/><path class="cls-3" d="M122.06,113.27a31.52,31.52,0,0,1-11.55,2.07c-10.52,0-18.1-4.17-22.72-10.17h7.78L83.73,80.46A25,25,0,0,1,98.85,64.52Z"/><path class="cls-4" d="M136,102.41l15.68,13.68a52.87,52.87,0,0,1-20.87,15.54,55.15,55.15,0,0,1-17.49,4c-1.26.08-2.53.13-3.81.13a52.48,52.48,0,0,1-34.28-12.93C66.46,115.05,60.43,103.71,60.43,89c0-21.48,12.89-35.74,28.34-42.42a53.08,53.08,0,0,1,20.86-4.39c17.57,0,32.63,7.15,42,19.33L136,75.18C130.34,68,120.17,62.5,110.51,62.5a32.45,32.45,0,0,0-11.66,2A25,25,0,0,0,83.73,80.46l-4.22-8.8L63.44,105.17H87.79c4.62,6,12.2,10.17,22.72,10.17a31.52,31.52,0,0,0,11.55-2.07A33,33,0,0,0,136,102.41Z"/></g></g></svg>