<svg xmlns="http://www.w3.org/2000/svg" xmlns:xlink="http://www.w3.org/1999/xlink" viewBox="0 0 172.29 172.29"><defs><style>.cls-1{fill:#fff;}.cls-2{fill:url(#linear-gradient);}.cls-3{fill:url(#linear-gradient-2);}.cls-4{fill:url(#linear-gradient-3);}</style><linearGradient id="linear-gradient" x1="18.45" y1="133.29" x2="94.31" y2="57.43" gradientUnits="userSpaceOnUse"><stop offset="0" stop-color="#2c00d7"/><stop offset="0.47" stop-color="#fe1ce6"/><stop offset="1" stop-color="#ffd675"/></linearGradient><linearGradient id="linear-gradient-2" x1="66.21" y1="20.9" x2="121.11" y2="152.61" gradientUnits="userSpaceOnUse"><stop offset="0" stop-color="#2c00d7"/><stop offset="0.55" stop-color="#ff29dd"/><stop offset="1" stop-color="#3401d8"/></linearGradient><linearGradient id="linear-gradient-3" x1="16.08" y1="86.15" x2="124.27" y2="86.15" gradientUnits="userSpaceOnUse"><stop offset="0" stop-color="#2500d2"/><stop offset="0.54" stop-color="#fe1ce6"/><stop offset="1" stop-color="#feb986"/></linearGradient></defs><g id="Layer_2" data-name="Layer 2"><g id="Layer_1-2" data-name="Layer 1"><rect class="cls-1" width="172.29" height="172.29" rx="17.72"/><path class="cls-2" d="M72.82,119H53.16l-6,12.4H25.45L66.64,45.08h19.3C71,51.54,58.5,65.34,58.5,86.15,58.5,100.41,64.34,111.38,72.82,119Z"/><path class="cls-3" d="M118.16,109.65a30.22,30.22,0,0,1-11.18,2c-10.18,0-17.52-4-22-9.84h7.53L81.06,77.9A24.25,24.25,0,0,1,95.7,62.46Z"/><path class="cls-4" d="M131.65,99.15l15.19,13.24a51.21,51.21,0,0,1-20.21,15,53.46,53.46,0,0,1-16.94,3.92c-1.21.08-2.44.12-3.68.12A50.8,50.8,0,0,1,72.82,119c-8.48-7.57-14.32-18.54-14.32-32.8C58.5,65.34,71,51.54,85.94,45.08a51.31,51.31,0,0,1,20.19-4.26c17,0,31.59,6.93,40.71,18.72L131.65,72.78c-5.47-6.93-15.31-12.27-24.67-12.27a31.34,31.34,0,0,0-11.28,2A24.25,24.25,0,0,0,81.06,77.9L77,69.38,61.42,101.82H85c4.47,5.8,11.81,9.84,22,9.84a30.22,30.22,0,0,0,11.18-2A31.85,31.85,0,0,0,131.65,99.15Z"/></g></g></svg>