<svg xmlns="http://www.w3.org/2000/svg" xmlns:xlink="http://www.w3.org/1999/xlink" viewBox="0 0 260.93 194.85"><defs><style>.cls-1{fill:url(#linear-gradient);}.cls-2{fill:url(#linear-gradient-2);}.cls-3{fill:url(#linear-gradient-3);}</style><linearGradient id="linear-gradient" x1="-15.05" y1="198.78" x2="148.02" y2="35.71" gradientUnits="userSpaceOnUse"><stop offset="0" stop-color="#2c00d7"/><stop offset="0.47" stop-color="#fe1ce6"/><stop offset="1" stop-color="#ffd675"/></linearGradient><linearGradient id="linear-gradient-2" x1="87.61" y1="-42.82" x2="205.63" y2="240.29" gradientUnits="userSpaceOnUse"><stop offset="0" stop-color="#2c00d7"/><stop offset="0.55" stop-color="#ff29dd"/><stop offset="1" stop-color="#3401d8"/></linearGradient><linearGradient id="linear-gradient-3" x1="-20.16" y1="97.42" x2="212.41" y2="97.42" gradientUnits="userSpaceOnUse"><stop offset="0" stop-color="#2500d2"/><stop offset="0.54" stop-color="#fe1ce6"/><stop offset="1" stop-color="#feb986"/></linearGradient></defs><g id="Layer_2" data-name="Layer 2"><g id="Layer_1-2" data-name="Layer 1"><path class="cls-1" d="M101.82,168H59.55l-12.8,26.64H0L88.54,9.14H130C97.86,23,71,52.71,71,97.42,71,128.08,83.59,151.67,101.82,168Z"/><path class="cls-2" d="M199.29,148a65.21,65.21,0,0,1-24,4.31c-21.89,0-37.67-8.68-47.29-21.15h16.21L119.53,79.69A52.13,52.13,0,0,1,151,46.51Z"/><path class="cls-3" d="M228.28,125.37l32.65,28.47a109.94,109.94,0,0,1-43.45,32.33,114.58,114.58,0,0,1-36.4,8.42q-3.92.25-7.91.26c-24.58,0-51.37-9.07-71.35-26.9C83.59,151.67,71,128.08,71,97.42,71,52.71,97.86,23,130,9.14A110.62,110.62,0,0,1,173.43,0c36.57,0,67.91,14.89,87.5,40.22L228.28,68.69c-11.75-14.88-32.91-26.38-53-26.38A67.62,67.62,0,0,0,151,46.51a52.13,52.13,0,0,0-31.47,33.18l-8.78-18.31L77.31,131.12H128c9.62,12.47,25.4,21.15,47.29,21.15a65.21,65.21,0,0,0,24-4.31C211.79,143.09,221.06,134.61,228.28,125.37Z"/></g></g></svg>